<?xml version="1.0" encoding="iso-8859-1"?>
<!-- Generator: Adobe Illustrator 19.0.0, SVG Export Plug-In . SVG Version: 6.00 Build 0)  -->
<svg version="1.1" id="Capa_1" xmlns="http://www.w3.org/2000/svg" xmlns:xlink="http://www.w3.org/1999/xlink" x="0px" y="0px"
	 viewBox="0 0 391.528 391.528" style="enable-background:new 0 0 391.528 391.528;" xml:space="preserve">
<path style="fill:#6F9935;" d="M336,154.94v88l55.528-21.104L314.584,28.588L0,154.94"/>
<path style="fill:#658B30;" d="M352,236.86v-97.92H39.84L16,148.516v6.424h320v88L352,236.86z"/>
<path style="fill:#79A73A;" d="M0,154.94h336v208H0V154.94z"/>
<path style="fill:#AAC16B;" d="M32,224.62c18.102-5.416,32.264-19.578,37.68-37.68h196.64c5.415,18.103,19.577,32.265,37.68,37.68
	v68.64c-18.103,5.415-32.265,19.577-37.68,37.68H72h-2.328c-5.414-18.1-19.573-32.262-37.672-37.68L32,224.62z"/>
<circle style="fill:#79A73A;" cx="168" cy="258.94" r="40"/>
<path style="fill:#AAC16B;" d="M330.456,154.94l-18.968-48.8l-0.864-2.152c-18.817,1.669-37.212-6.241-48.944-21.048l-2.144,0.864
	L88,154.94H330.456z"/>
<path style="fill:#89B140;" d="M126.584,138.94L88,154.94h242.456l-6.216-16H126.584z"/>
<g>
	<circle style="fill:#79A73A;" cx="80" cy="258.94" r="8"/>
	<circle style="fill:#79A73A;" cx="256" cy="258.94" r="8"/>
</g>
<g>
</g>
<g>
</g>
<g>
</g>
<g>
</g>
<g>
</g>
<g>
</g>
<g>
</g>
<g>
</g>
<g>
</g>
<g>
</g>
<g>
</g>
<g>
</g>
<g>
</g>
<g>
</g>
<g>
</g>
</svg>
